<svg width="668" height="115" viewBox="0 0 668 115" fill="none" xmlns="http://www.w3.org/2000/svg">
<path d="M339.73 41.8691C350.274 34.5143 361.177 30.8369 372.441 30.8369C379.076 30.8369 384.373 31.8656 388.334 33.9229C392.294 35.9801 395.2 39.3232 397.051 43.9521C398.903 48.5811 399.829 54.8044 399.829 62.6221V94.3301H413.253V113H373.907V65.0908C373.907 57.0159 370.255 52.9785 362.952 52.9785C357.706 52.9785 351.508 54.7529 344.359 58.3018V94.3301H357.629V113H318.437V65.9395C318.437 57.2988 314.914 52.9785 307.868 52.9785C302.879 52.9785 296.656 54.7529 289.198 58.3018V94.3301H302.467V113H250.006V94.3301H263.276V50.8955H250.006V31.917H289.198V38.7061C297.736 33.46 306.479 30.8369 315.428 30.8369C325.869 30.8369 333.97 34.5143 339.73 41.8691Z" fill="#A0C354"/>
<path d="M502.112 77.8975H441.628C442.245 84.1208 444.379 89.0583 448.031 92.71C451.734 96.3102 456.492 98.1104 462.304 98.1104C468.733 98.1104 475.007 94.9215 481.128 88.5439L501.186 95.0244C496.763 101.659 491.286 106.648 484.754 109.991C478.222 113.283 470.481 114.929 461.532 114.929C452.583 114.929 444.662 113.257 437.77 109.914C430.93 106.52 425.607 101.736 421.801 95.5645C418.046 89.3926 416.169 82.1406 416.169 73.8086C416.169 65.5794 418.123 58.1217 422.032 51.4355C425.992 44.7493 431.316 39.529 438.002 35.7744C444.739 31.9684 452.043 30.0654 459.912 30.0654C468.45 30.0654 475.882 32.0456 482.208 36.0059C488.534 39.9147 493.394 45.4951 496.789 52.7471C500.235 59.9476 502.009 68.3311 502.112 77.8975ZM458.678 47.2695C454.049 47.2695 450.32 48.6068 447.491 51.2812C444.714 53.9557 442.965 58.0446 442.245 63.5479H476.036C475.316 58.7132 473.336 54.8044 470.096 51.8213C466.907 48.7868 463.101 47.2695 458.678 47.2695Z" fill="#A0C354"/>
<path d="M574.925 30.9912V55.293C567.827 55.7559 562.17 56.8874 557.952 58.6875C553.786 60.4362 550.546 63.4707 548.231 67.791C545.968 72.1113 544.837 78.2832 544.837 86.3066V94.3301H560.961V113H504.103V94.3301H518.992V50.8955H504.874V31.917H542.677V52.5156C544.58 46.2923 548.103 41.1234 553.246 37.0088C558.389 32.8942 564.767 30.8369 572.379 30.8369C573.51 30.8369 574.359 30.8883 574.925 30.9912Z" fill="#A0C354"/>
<path d="M654.295 64.3193V94.3301H667.41V113H628.528V106.674C621.173 111.714 613.818 114.234 606.463 114.234C597.565 114.234 590.442 111.946 585.093 107.368C579.744 102.791 577.07 96.6188 577.07 88.8525C577.07 80.6234 580.053 74.04 586.019 69.1025C592.036 64.1136 600.008 61.6191 609.935 61.6191C613.381 61.6191 616.441 62.0049 619.115 62.7764C621.841 63.4964 624.979 64.7565 628.528 66.5566V60.0762C628.528 55.9616 627.242 52.6699 624.67 50.2012C622.099 47.7324 618.241 46.498 613.098 46.498C607.492 46.498 602.529 48.6582 598.208 52.9785L577.378 49.1982C583.704 36.443 596.768 30.0654 616.57 30.0654C630.148 30.0654 639.817 32.8685 645.577 38.4746C651.389 44.0293 654.295 52.6442 654.295 64.3193ZM612.249 98.1104C616.878 98.1104 622.304 95.333 628.528 89.7783V82.5264C622.973 78.9261 617.881 77.126 613.252 77.126C609.549 77.126 606.72 78.0003 604.766 79.749C602.811 81.4977 601.834 83.9922 601.834 87.2324C601.834 94.4844 605.306 98.1104 612.249 98.1104Z" fill="#A0C354"/>
<path d="M87.2695 61.3105V94.3301H99.459V113H61.3477V63.3936C61.3477 59.5876 60.7562 56.8359 59.5732 55.1387C58.4417 53.39 56.513 52.5156 53.7871 52.5156C48.8496 52.5156 43.8864 54.29 38.8975 57.8389V94.3301H51.5498V113H0.863281V94.3301H13.207V50.8955H0.863281V31.917H38.8975V39.5547C46.6123 33.7428 54.5329 30.8369 62.6592 30.8369C70.734 30.8369 76.8545 33.4085 81.0205 38.5518C85.1865 43.6436 87.2695 51.2298 87.2695 61.3105Z" fill="#71C8F0"/>
<path d="M188.704 77.8975H128.22C128.837 84.1208 130.972 89.0583 134.623 92.71C138.326 96.3102 143.084 98.1104 148.896 98.1104C155.325 98.1104 161.599 94.9215 167.72 88.5439L187.779 95.0244C183.355 101.659 177.878 106.648 171.346 109.991C164.814 113.283 157.073 114.929 148.124 114.929C139.175 114.929 131.254 113.257 124.363 109.914C117.522 106.52 112.199 101.736 108.393 95.5645C104.638 89.3926 102.761 82.1406 102.761 73.8086C102.761 65.5794 104.715 58.1217 108.624 51.4355C112.585 44.7493 117.908 39.529 124.594 35.7744C131.332 31.9684 138.635 30.0654 146.504 30.0654C155.042 30.0654 162.474 32.0456 168.8 36.0059C175.126 39.9147 179.987 45.4951 183.381 52.7471C186.827 59.9476 188.601 68.3311 188.704 77.8975ZM145.27 47.2695C140.641 47.2695 136.912 48.6068 134.083 51.2812C131.306 53.9557 129.557 58.0446 128.837 63.5479H162.628C161.908 58.7132 159.928 54.8044 156.688 51.8213C153.499 48.7868 149.693 47.2695 145.27 47.2695Z" fill="#71C8F0"/>
<path d="M245.316 31.917V50.8955H230.349V86.3066C230.349 88.8268 230.838 90.7298 231.815 92.0156C232.792 93.25 234.618 93.8672 237.292 93.8672C239.504 93.8672 242.178 93.3014 245.316 92.1699V110.146C238.372 112.871 231.841 114.234 225.72 114.234C218.674 114.234 213.376 112.46 209.828 108.911C206.33 105.311 204.581 100.245 204.581 93.7129V50.8955H194.321V31.917H204.581V19.3418L230.349 0.826172V31.917H245.316Z" fill="#71C8F0"/>
</svg>
